<?xml version="1.0" encoding="utf-8"?>
<!-- Generator: Adobe Illustrator 22.0.1, SVG Export Plug-In . SVG Version: 6.00 Build 0)  -->
<svg version="1.1" id="Layer_1" xmlns="http://www.w3.org/2000/svg" xmlns:xlink="http://www.w3.org/1999/xlink" x="0px" y="0px"
	 viewBox="0 0 175 55" style="enable-background:new 0 0 175 55;" xml:space="preserve">
<style type="text/css">
	.st0{fill:#FFFFFF;}
	.st1{fill-rule:evenodd;clip-rule:evenodd;fill:#FFFFFF;}
</style>
<g>
	<path class="st0" d="M164.4,36.3c-1.7-0.6-2.1-0.9-2.5-2l-11.7-23.2h-4.8l-13,23.7c-0.5,0.9-0.9,1.1-2,1.5l-3,0.9v3.5h14.5v-3.5
		l-3.2-0.8c-0.7-0.2-0.7-0.6-0.5-0.9c0,0,0.4-0.8,1.1-2h12.1c0.6,1.2,0.8,1.5,1,1.9c0.3,0.6-0.3,0.9-1,1.1l-2.9,0.8v3.5h18.6v-3.4
		C166.9,37.2,164.4,36.3,164.4,36.3 M140.6,30.5c1.9-3.6,4.6-8.8,4.7-9.1c0.2,0.4,2.6,5.5,4.4,9.1H140.6z"/>
	<path class="st0" d="M126.9,29.6l2.9-0.8v-3.6h-18.7v3.6l2.9,0.8c2,0.6,2.1,0.9,2.1,2.5V37c-1,0.2-3,0.2-4.2,0
		c-6.8-1-8.6-6-8.6-11.2c0-2.9,1-5.6,3.2-7.8c1.6-1.5,4-2.9,7.8-2.8c1.6,0.1,3.5,0.8,4.1,1.3c1.9,1.3,2.3,2.8,2.8,4.7h4.8l0-7.3
		c0,0-4.8-3.3-13.2-3.3c-6.6,0-19.7,2.8-19.7,15.7c0,8,6.7,14.2,18.3,14.7c8,0.4,13.4-2,13.4-2l0-7
		C124.8,30.4,124.8,30.2,126.9,29.6"/>
	<path class="st0" d="M80.7,11.3c-1.4-0.2-5.4-0.2-5.4-0.2l-16.4,0v3.6l2.8,0.9c2.2,0.7,2.2,0.9,2.2,2.6l0,15.6c0,1.6,0,1.7-2.2,2.5
		L58.8,37v3.6h18.8V37l-2.8-0.8c-2.2-0.7-2.2-0.8-2.2-2.5l0-3.7H77c4.1-0.1,7.4-0.3,10.3-2c2.8-1.6,4.4-4.5,4.4-7.6
		C91.7,15.4,87.8,12.1,80.7,11.3 M81.4,24.4c-0.5,0.5-1.7,1.1-2.7,1.3c-2.6,0.7-6,0.4-6.1,0.4V15c2.2,0,6.1-0.3,8.6,1.5
		c1.2,0.9,1.9,2.3,2,4.1C83.2,21.8,82.7,23.2,81.4,24.4"/>
	<path class="st0" d="M9.5,26.6C9.5,36.2,17.3,44,27,44c9.6,0,17.5-7.8,17.5-17.5c0-9.6-7.8-17.5-17.5-17.5
		C17.3,9.1,9.5,16.9,9.5,26.6 M27,10c9.2,0,16.6,7.4,16.6,16.6c0,9.2-7.4,16.6-16.6,16.6c-9.2,0-16.6-7.4-16.6-16.6
		C10.4,17.5,17.8,10,27,10"/>
	<path class="st0" d="M31.2,27.6l0.8-0.2v-1h-5.2v1l0.8,0.2c0.6,0.2,0.6,0.2,0.6,0.7v1.4c-0.3,0.1-0.8,0.1-1.2,0
		c-1.9-0.3-2.4-1.7-2.4-3.1c0-0.8,0.3-1.6,0.9-2.2c0.4-0.4,1.1-0.8,2.2-0.8c0.5,0,1,0.2,1.2,0.4c0.5,0.4,0.6,0.8,0.8,1.3h1.3l0-2.1
		c0,0-1.3-0.9-3.7-0.9c-1.9,0-5.5,0.8-5.5,4.4c0,2.2,1.9,4,5.1,4.1c2.2,0.1,3.8-0.5,3.8-0.5l0-2C30.6,27.9,30.6,27.8,31.2,27.6"/>
	<path class="st0" d="M18.3,22.5c-0.4,0-1.5-0.1-1.5-0.1l-4.6,0v1l0.8,0.2c0.6,0.2,0.6,0.3,0.6,0.7l0,4.4c0,0.5,0,0.5-0.6,0.7
		l-0.8,0.2v1h5.2v-1l-0.8-0.2C16,29.3,16,29.3,16,28.8l0-1.1h1.2c1.1,0,2.1-0.1,2.9-0.6c0.8-0.4,1.2-1.3,1.2-2.1
		C21.4,23.7,20.3,22.7,18.3,22.5 M18.5,26.2c-0.1,0.1-0.5,0.3-0.7,0.4c-0.7,0.2-1.7,0.1-1.7,0.1v-3.1c0.6,0,1.7-0.1,2.4,0.4
		c0.3,0.2,0.5,0.6,0.6,1.1C19,25.4,18.9,25.8,18.5,26.2"/>
	<path class="st0" d="M41.7,29.5c-0.5-0.2-0.6-0.3-0.7-0.6l-3.3-6.5h-1.4l-3.6,6.6c-0.1,0.2-0.3,0.3-0.6,0.4l-0.8,0.3v1h4v-1
		l-0.9-0.2c-0.2,0-0.2-0.2-0.1-0.3c0,0,0.1-0.2,0.3-0.6H38c0.2,0.3,0.2,0.4,0.3,0.5c0.1,0.2-0.1,0.3-0.3,0.3l-0.8,0.2v1h5.2v-0.9
		C42.4,29.8,41.7,29.5,41.7,29.5 M35.1,27.9c0.5-1,1.3-2.4,1.3-2.6c0.1,0.1,0.7,1.5,1.2,2.6H35.1z"/>
	<path class="st1" d="M26.9,11.2c-1.7,0-3.1,1.4-3.1,3.1c0,1.7,1.4,3.1,3.1,3.1c1.7,0,3.1-1.4,3.1-3.1C30,12.6,28.6,11.2,26.9,11.2
		 M25.3,15.8c-0.2,0-0.3-0.1-0.4-0.3c-0.1-0.2-0.2-0.3-0.2-0.5v0c0.3,0.2,0.6,0.3,1,0.4C25.7,15.5,25.6,15.8,25.3,15.8 M27.5,15.9
		c-0.1,0.1-0.3,0.2-0.6,0.2c-0.3,0-0.5-0.1-0.6-0.2c-0.1-0.1-0.2-0.3-0.3-0.6c0,0,0,0,0,0c0.5,0.1,1.2,0.1,1.7,0
		C27.7,15.6,27.6,15.8,27.5,15.9 M28.8,15.5c-0.1,0.1-0.2,0.3-0.4,0.3c-0.1,0-0.2,0-0.3-0.1c-0.1-0.1-0.1-0.2-0.2-0.4
		c0.4-0.1,0.7-0.2,1-0.4c0,0,0,0,0,0C29,15.1,28.9,15.3,28.8,15.5 M29,14.9c0-0.1,0-0.2-0.1-0.3c-0.1-0.1-0.2-0.2-0.3-0.2
		c-0.2,0-0.4,0.2-0.4,0.3C28,14.9,28,15.1,28,15.3c-0.1,0-0.2,0-0.3,0c0-0.2-0.1-0.4-0.3-0.6c-0.1-0.1-0.3-0.2-0.6-0.2
		c-0.3,0-0.5,0.1-0.6,0.2c-0.1,0.1-0.2,0.3-0.3,0.6c-0.1,0-0.2,0-0.3,0c0-0.4-0.1-0.7-0.4-0.8c-0.1-0.1-0.3-0.1-0.4,0
		c-0.1,0.1-0.2,0.2-0.2,0.4c0,0-0.4-0.3-0.5-0.4c0,0,0,0,0,0c0-0.1,0-0.1,0-0.2c0-1.4,1.2-2.6,2.6-2.6c1.4,0,2.6,1.2,2.6,2.6
		c0,0,0,0.1,0,0.1C29.4,14.5,29.3,14.7,29,14.9 M26.8,13.1c-0.2,0-0.4,0.1-0.6,0.2c-0.1,0.1-0.2,0.3-0.2,0.5c0.5,0.1,1.1,0,1.6,0
		c0-0.2-0.1-0.4-0.3-0.5C27.3,13.2,27.1,13.1,26.8,13.1 M25.5,13.1c-0.2,0-0.3,0-0.4,0.1c-0.1,0.1-0.2,0.3-0.2,0.4
		c0.3,0.1,0.6,0.1,0.9,0.2C25.8,13.5,25.7,13.2,25.5,13.1 M28.3,13.1c-0.3,0-0.4,0.4-0.4,0.7c0.3,0,0.6-0.1,0.9-0.2
		c0-0.1-0.1-0.2-0.2-0.3C28.6,13.2,28.5,13.1,28.3,13.1"/>
	<path class="st0" d="M23.8,40.1v-2.2h-0.2l-1,0.6v0.3l0.5-0.3c0,0,0,0,0,0v1.5c0,0.2,0,0.2-0.2,0.3l-0.3,0.1v0.3l0.2,0l0.6,0l1,0
		l0-0.2L24,40.4C23.8,40.3,23.8,40.3,23.8,40.1"/>
	<path class="st0" d="M28.3,40.1v-2.2h-0.2l-1,0.6v0.3l0.5-0.3c0,0,0,0,0,0v1.5c0,0.2,0,0.2-0.2,0.3l-0.3,0.1v0.3l0.2,0l0.6,0l1,0
		l0-0.2l-0.4-0.1C28.4,40.3,28.3,40.3,28.3,40.1"/>
	<path class="st0" d="M25.7,37.9c-0.7,0-1.1,0.3-1.1,0.9c0,0.5,0.3,0.8,0.9,0.8c0.2,0,0.4-0.1,0.6-0.2c0,0.5-0.4,0.9-0.9,0.9
		c-0.1,0-0.2,0-0.3-0.1l-0.1,0l-0.1,0.3l0.1,0c0.2,0.1,0.4,0.1,0.7,0.1c0.9,0,1.5-0.7,1.5-1.7C26.8,38.3,26.4,37.9,25.7,37.9
		 M26,39.2c-0.1,0.1-0.2,0.1-0.3,0.1c-0.2,0-0.4-0.1-0.4-0.5c0-0.2,0.1-0.5,0.3-0.5C25.9,38.3,26,38.5,26,39.2L26,39.2z"/>
	<path class="st0" d="M30.4,39c-0.2,0-0.4,0.1-0.6,0.2c0.1-0.6,0.4-0.9,0.9-0.9c0.1,0,0.2,0,0.3,0.1l0.1,0l0.1-0.3l-0.1,0
		c-0.2-0.1-0.4-0.1-0.7-0.1c-0.9,0-1.5,0.7-1.5,1.7c0,0.8,0.4,1.2,1.1,1.2c0.7,0,1.1-0.3,1.1-0.9C31.3,39.4,30.9,39,30.4,39
		 M30.2,40.5c-0.2,0-0.4-0.1-0.4-0.8v-0.1c0.1-0.1,0.2-0.1,0.3-0.1c0.2,0,0.4,0.1,0.4,0.5C30.5,40.3,30.4,40.5,30.2,40.5"/>
	<path class="st0" d="M27.8,21.1c0.4-1.3,1.1-2.4,1.1-2.4v-0.7c-2.1,0.1-4,0-4,0v0.7c0,0,0.7,1.1,1,2.5c0.4-0.1,0.9-0.1,1.3-0.1
		C27.4,21.1,27.6,21.1,27.8,21.1"/>
	<path class="st0" d="M23.7,21.9l-4.9-7.2c0,0-0.5-0.1-1,0.2c-0.5,0.3-0.6,0.8-0.6,0.8l5.2,6.8C22.9,22.3,23.3,22.1,23.7,21.9
		 M31.7,22.3l5-6.5c0,0-0.1-0.5-0.6-0.8c-0.5-0.3-1-0.2-1-0.2l-4.7,7C31.1,21.9,31.5,22.2,31.7,22.3L31.7,22.3z M20.4,36.3
		c-0.2-0.1-0.6-0.2-1.2-0.4c-0.7-0.1-0.9-0.1-1.2-0.1c-1.1,0.1-1.7,0.6-1.7,0.6l-0.1,0.1l0,0.2c0.1,0.4,0.4,1.4,0.9,1.6
		c0.1,0,1,0.2,1.8,0.2c1.2,0,1.6-0.2,1.7-0.2l0,0l4.1-6.5c-0.2-0.1-0.4-0.1-0.7-0.2C23,32.8,20.6,36,20.4,36.3 M37.7,36.4
		c0,0-0.7-0.5-1.7-0.6c-0.3,0-0.5,0-1.2,0.1c-0.6,0.1-0.9,0.3-1.2,0.4c-0.2-0.3-2.3-3.1-3.4-4.6c-0.2,0.1-0.5,0.1-0.7,0.2l4,6.4l0,0
		c0,0,0.5,0.3,1.7,0.2c0.7,0,1.7-0.2,1.8-0.2c0.5-0.1,0.8-1.1,0.9-1.6l0-0.2L37.7,36.4z"/>
	<path class="st0" d="M14.5,42.4L14.5,42.4c0.4-0.6,1.2-0.8,1.8-0.3c0.6,0.4,0.8,1.2,0.4,1.8l0,0c-0.4,0.6-1.2,0.8-1.8,0.3
		C14.2,43.7,14.1,42.9,14.5,42.4 M16.2,43.5L16.2,43.5c0.2-0.4,0.2-0.8-0.2-1.1c-0.4-0.2-0.8-0.1-1,0.2l0,0
		c-0.2,0.4-0.2,0.8,0.2,1.1C15.5,44,16,43.9,16.2,43.5"/>
	<polygon class="st0" points="18,43.1 19.7,43.9 19.5,44.4 18.3,43.8 18,44.3 19.1,44.8 18.9,45.2 17.8,44.7 17.4,45.6 16.9,45.3 	
		"/>
	<path class="st0" d="M22.5,44.8l0.5,0.1l0.5,2.7l-0.6-0.1l-0.1-0.6l-1-0.2l-0.3,0.5L20.9,47L22.5,44.8z M22.8,46.3l-0.1-0.9
		l-0.5,0.7L22.8,46.3z"/>
	<polygon class="st0" points="24.6,45.2 25.2,45.2 25.8,46.3 26.5,45.3 27.1,45.3 26.9,47.8 26.4,47.8 26.5,46.1 25.7,47.2 
		25.7,47.2 25.1,46.1 25,47.7 24.5,47.7 	"/>
	<polygon class="st0" points="27.9,45.3 29.7,45.1 29.8,45.6 28.4,45.7 28.5,46.2 29.7,46.1 29.7,46.6 28.5,46.7 28.6,47.2 
		29.9,47.1 30,47.6 28.1,47.7 	"/>
	<path class="st0" d="M30.4,45l1.1-0.3c0.3-0.1,0.6,0,0.8,0.1c0.2,0.1,0.3,0.3,0.3,0.5l0,0c0.1,0.4-0.1,0.7-0.3,0.9l0.8,0.7L32.5,47
		l-0.7-0.6l0,0l-0.4,0.1l0.2,0.8L31,47.4L30.4,45z M31.8,45.9c0.3-0.1,0.4-0.2,0.3-0.4l0,0c-0.1-0.2-0.2-0.3-0.5-0.2l-0.5,0.1
		l0.2,0.7L31.8,45.9z"/>
	<polygon class="st0" points="33.2,44.2 33.7,44 34.6,46.3 34.1,46.5 	"/>
	<path class="st0" d="M35,44.8L35,44.8c-0.3-0.6-0.1-1.4,0.6-1.7c0.4-0.2,0.7-0.2,1-0.1l-0.1,0.5c-0.2-0.1-0.5-0.1-0.7,0
		c-0.4,0.2-0.5,0.6-0.3,1l0,0c0.2,0.4,0.6,0.6,1,0.4c0.3-0.1,0.4-0.3,0.4-0.6l0.5,0.2c-0.1,0.4-0.3,0.6-0.7,0.9
		C36.1,45.7,35.4,45.5,35,44.8"/>
	<path class="st0" d="M37.7,41.9l0.4-0.3l2.3,1.4L40,43.3L39.5,43l-0.9,0.6l0.1,0.6l-0.5,0.3L37.7,41.9z M39.1,42.7l-0.7-0.5
		l0.2,0.8L39.1,42.7z"/>
	<path class="st0" d="M10.5,40.1l-0.6-0.8c-0.4-0.5-0.3-1,0.1-1.3l0,0c0.5-0.3,1-0.2,1.3,0.3l0.2,0.3l0.6-0.4l0.3,0.4L10.5,40.1z
		 M10.9,38.5c-0.2-0.2-0.4-0.2-0.6-0.1l0,0c-0.2,0.1-0.2,0.4,0,0.6l0.3,0.3l0.6-0.5L10.9,38.5z"/>
	<path class="st0" d="M8.7,37.6l-0.5-1C8,36.3,8,36,8,35.8c0.1-0.2,0.2-0.3,0.4-0.5l0,0c0.4-0.2,0.7-0.1,0.9,0.1l0.5-1l0.3,0.6
		l-0.4,0.8l0,0l0.2,0.4l0.7-0.4l0.3,0.5L8.7,37.6z M9.2,36c-0.1-0.2-0.3-0.3-0.5-0.2l0,0c-0.2,0.1-0.2,0.3-0.1,0.5l0.3,0.5l0.6-0.3
		L9.2,36z"/>
	<path class="st0" d="M8.4,34.3L8.4,34.3c-0.7,0.2-1.4-0.1-1.7-0.8c-0.3-0.7,0.1-1.4,0.8-1.7l0,0c0.7-0.2,1.4,0.1,1.6,0.8
		C9.4,33.4,9.1,34.1,8.4,34.3 M7.7,32.4L7.7,32.4c-0.4,0.1-0.6,0.6-0.5,1c0.1,0.4,0.6,0.6,1,0.4l0,0c0.4-0.1,0.6-0.6,0.5-1
		C8.6,32.4,8.1,32.2,7.7,32.4"/>
	<polygon class="st0" points="6.1,31.1 5.8,29.2 6.2,29.1 6.5,30.5 7,30.4 6.8,29.2 7.3,29.1 7.5,30.3 8.4,30.1 8.5,30.7 	"/>
	<polygon class="st0" points="5.6,28.1 5.6,26.3 6.1,26.2 6.1,27.6 6.6,27.5 6.6,26.4 7.1,26.4 7.1,27.5 7.6,27.5 7.6,26.2 
		8.1,26.1 8.1,28 	"/>
	<path class="st0" d="M7.7,25.5l-0.4-0.4c0.2-0.2,0.3-0.4,0.4-0.7c0-0.2-0.1-0.4-0.2-0.4l0,0c-0.1,0-0.2,0.1-0.4,0.5
		C7,25,6.8,25.3,6.3,25.2h0c-0.4,0-0.7-0.4-0.7-0.9c0-0.4,0.2-0.7,0.4-0.9l0.4,0.3c-0.2,0.2-0.3,0.4-0.3,0.6c0,0.2,0.1,0.3,0.2,0.3
		h0c0.2,0,0.2-0.1,0.4-0.5c0.2-0.5,0.4-0.8,0.8-0.7h0c0.5,0.1,0.7,0.5,0.7,1C8.2,24.8,8,25.2,7.7,25.5"/>
	<path class="st0" d="M8,22.9l-0.3-0.4c0.2-0.2,0.4-0.4,0.5-0.6c0.1-0.2,0-0.4-0.1-0.4l0,0c-0.1,0-0.2,0-0.4,0.4
		c-0.2,0.5-0.5,0.7-0.9,0.6l0,0c-0.4-0.1-0.6-0.5-0.5-1c0.1-0.4,0.3-0.6,0.5-0.8L7,21c-0.2,0.2-0.3,0.4-0.4,0.6c0,0.2,0,0.3,0.1,0.4
		l0,0c0.2,0,0.2-0.1,0.4-0.4c0.2-0.5,0.5-0.7,0.9-0.6l0,0C8.6,21,8.8,21.4,8.7,22C8.6,22.3,8.4,22.7,8,22.9"/>
	<rect x="7.8" y="18.4" transform="matrix(0.3444 -0.9388 0.9388 0.3444 -13.1378 20.418)" class="st0" width="0.5" height="2.5"/>
	<path class="st0" d="M8.5,18.4L8.5,18.4c-0.6-0.3-0.9-1.1-0.5-1.8c0.4-0.7,1.1-0.9,1.7-0.6l0,0c0.6,0.3,0.9,1.1,0.5,1.8
		C9.9,18.5,9.1,18.8,8.5,18.4 M9.4,16.6L9.4,16.6c-0.4-0.2-0.8-0.1-1,0.3c-0.2,0.4,0,0.8,0.3,1l0,0c0.4,0.2,0.8,0.1,1-0.3
		C10,17.2,9.8,16.8,9.4,16.6"/>
	<polygon class="st0" points="9.3,14.5 9.6,14.1 11.5,14.1 10.3,13.2 10.6,12.7 12.6,14.2 12.3,14.6 10.3,14.6 11.6,15.6 11.2,16 	
		"/>
	<path class="st0" d="M12.1,11.1l0.4-0.3l2.5,1.1l-0.4,0.4L14,12l-0.8,0.7l0.2,0.6L13,13.7L12.1,11.1z M13.5,11.8l-0.8-0.4l0.3,0.8
		L13.5,11.8z"/>
	<polygon class="st0" points="14.1,9.4 14.6,9.1 15.7,10.8 16.7,10.1 17,10.5 15.5,11.5 	"/>
	<path class="st0" d="M18.3,8.3L18.3,8.3c-0.3-0.7,0-1.4,0.7-1.7c0.4-0.2,0.7-0.2,1,0l-0.2,0.5c-0.2-0.1-0.4-0.1-0.7,0
		c-0.4,0.1-0.5,0.6-0.4,1l0,0c0.2,0.4,0.6,0.6,1,0.4c0.2-0.1,0.3-0.2,0.4-0.3l-0.1-0.3l-0.5,0.2l-0.2-0.4l1-0.4l0.4,1
		C20.7,8.6,20.4,8.9,20,9C19.3,9.3,18.6,9,18.3,8.3"/>
	<path class="st0" d="M21.4,7.2L21.4,7.2c-0.1-0.7,0.3-1.4,1-1.5c0.7-0.2,1.4,0.3,1.6,1l0,0c0.1,0.7-0.3,1.4-1,1.5
		C22.2,8.3,21.5,7.9,21.4,7.2 M23.4,6.7L23.4,6.7c-0.1-0.4-0.5-0.7-0.9-0.6c-0.4,0.1-0.7,0.5-0.6,0.9l0,0c0.1,0.4,0.5,0.7,0.9,0.6
		C23.3,7.6,23.5,7.2,23.4,6.7"/>
	<polygon class="st0" points="24.9,5.3 25.4,5.2 25.5,7.2 26.8,7.2 26.8,7.7 25,7.8 	"/>
	<polygon class="st0" points="27.7,5.2 29.6,5.4 29.6,5.8 28.2,5.7 28.2,6.3 29.4,6.4 29.3,6.9 28.2,6.8 28.1,7.7 27.5,7.7 	"/>
	<polygon class="st0" points="30.7,5.5 32.5,5.9 32.4,6.4 31.1,6.1 31,6.6 32.2,6.9 32.1,7.3 30.9,7.1 30.8,7.6 32.1,7.9 32,8.4 
		30.2,7.9 	"/>
	<path class="st0" d="M33.7,6.3l1.1,0.4C35,6.8,35.2,7,35.3,7.2c0.1,0.2,0.1,0.4,0,0.6l0,0c-0.1,0.4-0.4,0.5-0.8,0.5l0.2,1l-0.6-0.2
		L34,8.2l0,0l-0.4-0.2l-0.3,0.7l-0.5-0.2L33.7,6.3z M34.3,7.8c0.2,0.1,0.4,0,0.5-0.2l0,0c0.1-0.2,0-0.4-0.3-0.5L34,6.9l-0.3,0.7
		L34.3,7.8z"/>
	<path class="st0" d="M35.5,9.3l0.5-0.2c0.1,0.3,0.2,0.5,0.5,0.6c0.2,0.1,0.4,0.1,0.4,0l0,0c0.1-0.1,0-0.2-0.3-0.5
		c-0.4-0.4-0.6-0.6-0.3-1.1l0,0c0.2-0.4,0.7-0.5,1.1-0.2c0.3,0.2,0.5,0.4,0.6,0.7l-0.5,0.2c-0.1-0.2-0.3-0.4-0.4-0.5
		c-0.2-0.1-0.3-0.1-0.4,0l0,0c-0.1,0.1,0,0.2,0.3,0.5c0.4,0.4,0.5,0.7,0.3,1l0,0c-0.2,0.4-0.7,0.5-1.2,0.2
		C35.9,10,35.6,9.7,35.5,9.3"/>
	<path class="st0" d="M38.4,9.7c0.2,0.1,0.4,0.1,0.5-0.1l-0.2-0.1L39,9l0.5,0.3l-0.3,0.4c-0.3,0.4-0.6,0.4-0.9,0.2L38.4,9.7z"/>
	<path class="st0" d="M42.2,11.7l0.3,0.4l-1.1,2.5L41,14.1l0.2-0.5l-0.7-0.8L40,13l-0.4-0.4L42.2,11.7z M41.5,13.1l0.4-0.8l-0.8,0.3
		L41.5,13.1z"/>
	<path class="st0" d="M42,14.7l0.5,0c0,0.3,0,0.5,0.2,0.8c0.1,0.2,0.3,0.2,0.4,0.2l0,0c0.1-0.1,0.1-0.2,0-0.6
		c-0.2-0.5-0.3-0.8,0.2-1.1l0,0c0.4-0.3,0.8-0.1,1.1,0.3c0.2,0.3,0.3,0.6,0.3,0.9l-0.5,0c0-0.3,0-0.5-0.2-0.7
		c-0.1-0.2-0.3-0.2-0.4-0.1l0,0c-0.1,0.1-0.1,0.2,0,0.6c0.2,0.5,0.2,0.8-0.2,1.1l0,0c-0.4,0.3-0.8,0.1-1.2-0.3
		C42.1,15.5,42,15.1,42,14.7"/>
	<path class="st0" d="M43.5,16.9L44,17c-0.1,0.3-0.1,0.5,0.1,0.8c0.1,0.2,0.2,0.3,0.4,0.2l0,0c0.1-0.1,0.1-0.2,0.1-0.6
		c-0.1-0.5-0.1-0.9,0.3-1.1l0,0c0.4-0.2,0.8,0,1.1,0.4c0.2,0.3,0.2,0.6,0.1,1l-0.5-0.1c0-0.3,0-0.5-0.1-0.7
		c-0.1-0.2-0.2-0.2-0.3-0.2l0,0c-0.1,0.1-0.1,0.2,0,0.6c0.1,0.5,0.1,0.8-0.3,1l0,0c-0.4,0.2-0.9,0-1.1-0.5
		C43.4,17.7,43.4,17.3,43.5,16.9"/>
	<path class="st0" d="M45.5,19L45.5,19c0.7-0.2,1.4,0.1,1.6,0.9c0.2,0.7-0.1,1.4-0.8,1.6l0,0c-0.7,0.2-1.4-0.1-1.6-0.9
		C44.5,19.9,44.9,19.2,45.5,19 M46.2,21L46.2,21c0.4-0.1,0.7-0.5,0.5-1c-0.1-0.4-0.6-0.6-1-0.5l0,0c-0.4,0.1-0.6,0.5-0.5,1
		C45.3,20.9,45.8,21.1,46.2,21"/>
	<path class="st0" d="M46.5,22.4L46.5,22.4c0.7-0.1,1.4,0.3,1.5,1.1c0.1,0.5,0,0.8-0.2,1l-0.4-0.3c0.1-0.2,0.2-0.4,0.2-0.7
		c-0.1-0.4-0.5-0.7-0.9-0.6h0c-0.4,0.1-0.7,0.4-0.7,0.8c0,0.3,0.2,0.4,0.4,0.6L46,24.8c-0.3-0.2-0.5-0.5-0.6-0.9
		C45.3,23.1,45.8,22.5,46.5,22.4"/>
	
		<rect x="45.7" y="25.6" transform="matrix(0.9996 -2.947764e-02 2.947764e-02 0.9996 -0.7426 1.394)" class="st0" width="2.5" height="0.5"/>
	<path class="st0" d="M48.1,28.2l0,0.5l-2.6,0.8l0.1-0.6l0.6-0.2l0.1-1l-0.5-0.3l0.1-0.6L48.1,28.2z M46.6,28.6l0.8-0.3L46.7,28
		L46.6,28.6z"/>
	<polygon class="st0" points="47.2,30.9 47.3,30.2 47.8,30.3 47.4,32.3 46.9,32.2 47.1,31.5 45.1,31 45.3,30.5 	"/>
	<rect x="45.5" y="31.9" transform="matrix(0.3313 -0.9435 0.9435 0.3313 -0.6514 65.3579)" class="st0" width="0.5" height="2.5"/>
	<path class="st0" d="M45.4,34.3L45.4,34.3c0.6,0.3,0.9,1.1,0.6,1.8c-0.3,0.7-1.1,0.9-1.7,0.6l0,0c-0.6-0.3-0.9-1.1-0.5-1.8
		C44,34.2,44.7,34,45.4,34.3 M44.4,36.2L44.4,36.2c0.4,0.2,0.8,0.1,1-0.3c0.2-0.4,0-0.8-0.4-1l0,0c-0.4-0.2-0.8-0.1-1,0.3
		C43.9,35.6,44,36,44.4,36.2"/>
	<polygon class="st0" points="44.6,38.3 44.3,38.7 42.4,38.7 43.6,39.6 43.3,40.1 41.3,38.6 41.6,38.2 43.6,38.2 42.3,37.2 
		42.6,36.8 	"/>
</g>
<g>
	<path class="st0" d="M3.9,26.6c0,12.7,10.4,23.1,23.1,23.1C39.7,49.7,50,39.3,50,26.6C50,13.8,39.7,3.5,27,3.5
		C14.2,3.5,3.9,13.8,3.9,26.6 M27,3.8c12.5,0,22.7,10.2,22.7,22.7c0,12.5-10.2,22.7-22.7,22.7c-12.5,0-22.7-10.2-22.7-22.7
		C4.2,14,14.4,3.8,27,3.8"/>
	<path class="st0" d="M1.6,26.6c0,14,11.4,25.3,25.3,25.3c14,0,25.3-11.4,25.3-25.3c0-14-11.4-25.3-25.3-25.3
		C13,1.3,1.6,12.6,1.6,26.6 M3,26.6c0-13.2,10.8-24,24-24c13.2,0,24,10.8,24,24c0,13.2-10.8,24-24,24C13.7,50.6,3,39.8,3,26.6"/>
</g>
<g>
	<path class="st0" d="M27,9.1c-9.6,0-17.5,7.8-17.5,17.5C9.5,36.2,17.3,44,27,44c9.6,0,17.5-7.8,17.5-17.5
		C44.4,16.9,36.6,9.1,27,9.1 M27,43.2c-9.2,0-16.6-7.4-16.6-16.6C10.4,17.5,17.8,10,27,10c9.2,0,16.6,7.4,16.6,16.6
		C43.6,35.8,36.1,43.2,27,43.2"/>
	<polygon class="st0" points="169.6,38.3 168.7,38.3 168.7,37.9 170.9,37.9 170.9,38.3 170,38.3 170,40.6 169.6,40.6 	"/>
	<polygon class="st0" points="171.3,37.9 171.8,37.9 172.7,39.2 173.5,37.9 174,37.9 174,40.6 173.5,40.6 173.5,38.7 172.7,39.9 
		172.7,39.9 171.8,38.7 171.8,40.6 171.3,40.6 	"/>
</g>
</svg>
